<?xml version="1.0" encoding="utf-8"?>
<!-- Generator: Adobe Illustrator 26.0.1, SVG Export Plug-In . SVG Version: 6.00 Build 0)  -->
<svg version="1.1" id="logo" xmlns="http://www.w3.org/2000/svg" xmlns:xlink="http://www.w3.org/1999/xlink" x="0px" y="0px" viewBox="0 0 500 500" style="enable-background:new 0 0 500 500;" xml:space="preserve">
	<style type="text/css">
	.st0{fill-rule:evenodd;clip-rule:evenodd;fill:url(#SVGID_1_);}
	.st1{fill-rule:evenodd;clip-rule:evenodd;fill:url(#SVGID_00000021834265933874850800000013938238158375615899_);}
</style>
	<linearGradient id="SVGID_1_" gradientUnits="userSpaceOnUse" x1="506.1363" y1="315.7609" x2="101.9348" y2="872.0963" gradientTransform="matrix(1 0 0 1 0 -300)">
		<stop offset="0" style="stop-color:#1969A2" />
		<stop offset="1" style="stop-color:#134472" />
	</linearGradient>
	<path class="st0" d="M500,23.1C500,10.3,489.7,0,476.9,0H371.1c0,0-200.7-2.6-200.7,147.9c0,159,223.2,128.2,223.2,216.3
	c0,51.9-86.7,51.9-71.8,51.9S0,416.1,0,416.1v60.8C0,489.7,10.3,500,23.1,500h288.3c92.2,0,188.6-47.2,188.6-141
	c0-164.2-222.3-129.8-222.3-218c6.2-54.8,83.9-51,83.9-51h115.3c12.7,0,23.1-10.3,23.1-23.1L500,23.1L500,23.1z" />
	<linearGradient id="SVGID_00000088825348907475237720000001031506149402860939_" gradientUnits="userSpaceOnUse" x1="277.259" y1="385.6165" x2="40.2858" y2="711.7818" gradientTransform="matrix(1 0 0 1 0 -300)">
		<stop offset="0.2237" style="stop-color:#9F1D2F" />
		<stop offset="0.8383" style="stop-color:#741115" />
	</linearGradient>
	<path style="fill-rule:evenodd;clip-rule:evenodd;fill:url(#SVGID_00000088825348907475237720000001031506149402860939_);" d="
	M168.5,40.4C168.5,40.4,168.5,40.3,168.5,40.4c16.6-14.6,4.2-41.9-17.6-38.8C93,9.6,0,50.7,0,151.4l0.2,225.8h313
	c16.7,0,24.2-9.2,24.2-17.9c0-15.8-13.5-16.3-29.1-22.9c-64.3-23.6-187.7-69-186.3-185.7C120,98.6,142.3,63.5,168.5,40.4z" />
</svg>